<svg width="350" height="330" viewBox="0 0 350 330" fill="none" xmlns="http://www.w3.org/2000/svg">
<circle cx="173.876" cy="164.981" r="164.981" fill="#FAFAFB"/>
<path d="M43.4007 279.885C40.0179 277.127 36.4869 274.492 33.351 271.464C31.8942 270.06 30.5361 268.534 29.4991 266.785C28.9558 265.899 28.5114 264.939 28.1904 263.954C27.9188 263.141 27.6472 261.885 28.8324 261.762C29.2768 261.713 29.746 261.812 30.1657 261.935C30.6349 262.058 30.8324 261.344 30.3633 261.221C28.9558 260.876 26.9311 260.974 27.1533 262.944C27.4249 265.16 28.8818 267.426 30.2151 269.125C33.672 273.557 38.561 276.881 42.8821 280.402C43.2525 280.697 43.771 280.18 43.4007 279.885Z" fill="#98A0AD"/>
<path d="M30.4914 261.338C29.0593 259.639 27.9482 257.669 27.3062 255.527C27.0099 254.567 26.8864 253.582 26.5901 252.646C26.3926 252.055 26.0222 251.513 26.5654 250.996C26.8123 250.775 27.1827 250.627 27.4543 250.43C28.2938 249.864 28.763 249.199 27.7259 248.485C27.1333 248.091 26.3926 248.017 25.7506 247.697C24.8863 247.229 24.2197 246.466 23.7258 245.653C22.6888 243.979 22.1208 242.009 21.5035 240.162C20.7628 237.971 20.0467 235.73 19.4047 233.514C18.1207 229.033 17.059 224.502 16.1948 219.947C16.1207 220.095 16.0219 220.242 15.9479 220.39C20.5899 218.863 25.2073 222.779 28.5161 225.561C31.9236 228.417 34.9854 231.692 37.6768 235.238C43.2325 242.625 47.1091 251.144 49.5289 260.033C51.0105 265.475 51.9488 271.064 52.4673 276.678C52.5167 277.146 53.2574 277.146 53.208 276.678C51.4055 257.3 44.2449 237.675 28.9111 224.896C25.4049 221.991 20.664 218.076 15.775 219.676C15.5775 219.75 15.4787 219.922 15.5281 220.119C16.4417 224.995 17.6022 229.821 19.0097 234.598C19.6763 236.838 20.3677 239.054 21.1332 241.246C21.7505 243.019 22.3184 244.914 23.4048 246.466C23.8246 247.057 24.2937 247.598 24.8863 248.017C25.6024 248.534 26.4419 248.583 27.158 249.027C28.0963 249.593 26.7382 250.036 26.2444 250.381C25.874 250.652 25.5283 250.972 25.4543 251.464C25.3555 252.203 25.9975 253.065 26.1703 253.754C26.4173 254.813 26.6395 255.847 27.0345 256.881C27.7506 258.703 28.763 260.378 30.0223 261.88C30.2692 262.224 30.7877 261.707 30.4914 261.338Z" fill="#98A0AD"/>
<path d="M19.9154 223.908C30.2367 235.53 38.2616 249.097 43.4963 263.723C44.9531 267.786 46.163 271.922 47.1754 276.108C47.2988 276.576 47.9902 276.379 47.8915 275.911C44.237 260.744 37.669 246.29 28.5823 233.56C26.0637 230.014 23.3476 226.616 20.4587 223.366C20.113 223.046 19.5944 223.563 19.9154 223.908Z" fill="#98A0AD"/>
<path d="M30.2918 256.465C31.8968 256.415 33.2301 257.253 34.5388 258.041C35.724 258.755 36.8845 259.469 38.0204 260.257C40.3661 261.882 42.4896 263.802 43.8971 266.314C44.1193 266.733 44.7613 266.363 44.539 265.945C43.0575 263.335 40.8352 261.315 38.3907 259.641C37.1068 258.755 35.7487 257.918 34.3906 257.13C33.1067 256.366 31.798 255.726 30.2671 255.751C29.8226 255.726 29.8226 256.465 30.2918 256.465Z" fill="#98A0AD"/>
<path d="M40.1194 252.03C39.4527 248.041 39.4774 244.003 40.1935 240.039C40.2676 239.571 39.5515 239.374 39.4774 239.842C38.7367 243.954 38.712 248.115 39.4034 252.227C39.4774 252.695 40.1935 252.498 40.1194 252.03Z" fill="#98A0AD"/>
<path d="M38.8591 235.168C39.3776 230.293 40.4147 225.417 42.1432 220.837C43.6 216.972 45.7729 213.18 49.5014 211.111C49.3038 211.013 49.131 210.89 48.9335 210.791C49.3285 217.636 53.3533 223.718 53.5262 230.588C53.6249 230.465 53.699 230.342 53.7978 230.243C52.8595 230.49 51.9212 230.736 50.9829 230.982C50.7113 231.056 50.6125 231.401 50.8101 231.598C51.9459 232.681 52.1681 234.208 52.2175 235.71C52.2422 236.498 52.662 240.314 51.7483 240.56C51.5261 240.634 51.4027 240.905 51.5261 241.102C54.2669 245.485 53.0076 250.68 52.2422 255.408C51.452 260.283 51.3533 265.208 51.9212 270.083C51.9706 270.551 52.7113 270.551 52.662 270.083C52.02 264.592 52.341 259.2 53.2793 253.783C54.0447 249.4 54.662 244.697 52.1928 240.708C52.1187 240.88 52.0447 241.077 51.9706 241.25C52.6373 241.077 52.8595 240.56 52.9583 239.92C53.1311 238.738 53.0076 237.433 52.9829 236.251C52.9583 234.38 52.7607 232.435 51.3286 231.081C51.2792 231.278 51.2298 231.499 51.1557 231.696C52.094 231.45 53.0323 231.204 53.9706 230.957C54.1188 230.908 54.2422 230.76 54.2422 230.613C54.0694 223.718 50.0693 217.661 49.6495 210.816C49.6248 210.545 49.3532 210.348 49.0816 210.496C45.4025 212.54 43.1802 216.159 41.6493 219.976C39.6986 224.826 38.6122 230.022 38.069 235.217C38.069 235.636 38.8097 235.636 38.8591 235.168Z" fill="#98A0AD"/>
<path d="M47.8201 214.482C45.178 224.455 43.82 234.747 43.7953 245.064C43.7953 245.532 44.536 245.532 44.536 245.064C44.5607 234.796 45.8941 224.602 48.5115 214.679C48.6596 214.212 47.9435 214.015 47.8201 214.482Z" fill="#98A0AD"/>
<path d="M306.307 199.734C307.887 204.806 309.072 209.977 309.813 215.246C310.183 217.906 310.455 220.614 310.578 223.298C310.628 223.988 310.652 224.702 310.677 225.391C310.702 225.81 310.578 226.499 310.727 226.893C310.875 227.262 311.393 227.509 311.69 227.755C312.208 228.173 312.727 228.592 313.22 229.011C313.245 228.814 313.27 228.617 313.294 228.42C312.603 228.838 311.936 229.035 311.122 229.06C310.949 229.06 310.825 229.183 310.776 229.331C310.06 231.547 310.578 233.886 312.183 235.61C312.282 235.388 312.356 235.191 312.455 234.969C309.887 234.871 309.838 237.826 310.085 239.648C310.43 242.184 310.924 244.72 311.64 247.182C313.072 252.008 315.467 256.588 319.393 259.888C319.764 260.183 320.282 259.666 319.912 259.371C316.603 256.588 314.381 252.846 312.949 248.783C312.282 246.862 311.764 244.892 311.369 242.922C311.048 241.273 309.443 235.609 312.455 235.708C312.801 235.733 312.924 235.314 312.727 235.068C311.319 233.541 310.875 231.473 311.517 229.528C311.393 229.626 311.27 229.7 311.171 229.799C312.109 229.799 312.899 229.577 313.714 229.06C313.887 228.937 313.986 228.641 313.788 228.469C312.875 227.73 311.615 227.09 311.467 225.859C311.319 224.554 311.369 223.2 311.27 221.895C311.097 219.457 310.85 217.019 310.48 214.582C309.739 209.485 308.578 204.462 307.047 199.537C306.875 199.069 306.159 199.266 306.307 199.734Z" fill="#98A0AD"/>
<path d="M307.513 200.84C306.5 199.51 308.402 198.525 309.513 198.796C310.624 199.092 311.538 199.978 312.303 200.766C313.711 202.194 314.822 203.868 315.785 205.617C317.785 209.212 319.464 213.053 320.945 216.869C323.982 224.724 326.081 232.948 327.192 241.271C327.81 245.998 328.131 250.75 328.131 255.503C328.131 255.97 328.871 255.97 328.871 255.503C328.871 245.604 327.513 235.73 324.847 226.226C323.538 221.597 321.933 217.066 320.032 212.634C318.279 208.547 316.402 204.164 313.39 200.815C312.18 199.461 310.13 197.368 308.105 198.082C306.871 198.501 306.056 200.077 306.896 201.209C307.167 201.579 307.809 201.234 307.513 200.84Z" fill="#98A0AD"/>
<path d="M325.295 227.906C326.555 223.695 328.012 219.583 329.666 215.52C330.53 213.428 331.444 211.335 332.431 209.291C332.901 208.331 333.37 207.346 333.864 206.385C334.185 205.77 335.148 203.061 336.16 203.308C336.456 203.381 336.654 203.135 336.604 202.864C336.358 201.338 338.086 200.033 339 199.023C339.814 198.137 340.605 197.25 341.419 196.364C343.098 194.542 344.753 192.72 346.432 190.873C346.234 190.824 346.012 190.774 345.815 190.701C348.358 196.979 347.691 203.849 346.21 210.3C345.444 213.6 344.481 216.875 343.666 220.174C343.098 222.464 342.481 225.936 339.666 226.428C339.469 226.453 339.37 226.699 339.419 226.872C340.135 229.802 338.16 232.51 336.851 234.973C335.617 237.287 334.481 239.675 333.444 242.113C331.419 246.865 329.814 251.765 328.604 256.764C328.481 257.232 329.197 257.429 329.32 256.961C330.654 251.421 332.481 246.028 334.827 240.833C335.938 238.37 337.172 235.957 338.481 233.594C339.666 231.451 340.753 229.186 340.16 226.699C340.086 226.847 339.987 226.995 339.913 227.142C342.308 226.724 343.345 224.311 343.963 222.193C344.975 218.648 345.889 215.003 346.753 211.408C348.407 204.563 349.296 197.201 346.58 190.504C346.481 190.257 346.16 190.11 345.963 190.331C343.864 192.621 341.765 194.936 339.666 197.226C338.679 198.309 337.617 199.343 336.703 200.5C336.111 201.288 335.79 202.027 335.938 203.012C336.086 202.864 336.234 202.717 336.382 202.569C334.604 202.126 333.74 205.031 333.148 206.188C331.962 208.528 330.851 210.891 329.839 213.28C327.814 217.958 326.086 222.784 324.629 227.66C324.431 228.152 325.147 228.349 325.295 227.906Z" fill="#98A0AD"/>
<path d="M344.601 197.247C336.897 211.577 329.045 226.351 327.193 242.725C327.143 243.193 327.884 243.193 327.934 242.725C329.785 226.474 337.613 211.799 345.243 197.616C345.489 197.197 344.847 196.828 344.601 197.247Z" fill="#98A0AD"/>
<path d="M312.484 207.1C318.484 222.933 322.065 239.627 323.126 256.518C323.151 256.986 323.892 256.986 323.867 256.518C322.805 239.553 319.225 222.81 313.2 206.903C313.027 206.485 312.311 206.657 312.484 207.1Z" fill="#98A0AD"/>
<path d="M0.46579 199.173C15.5279 196.489 31.0839 196.637 46.0966 199.616C53.5289 201.094 60.813 203.236 67.8255 206.043C75.1591 208.973 82.1963 212.494 89.3816 215.744C116.493 228.007 145.507 236.034 175.063 239.53C191.829 241.525 208.767 242.042 225.607 241.106C226.077 241.081 226.077 240.343 225.607 240.367C195.384 242.066 164.939 238.988 135.654 231.331C120.963 227.49 106.567 222.491 92.6657 216.409C85.4556 213.258 78.4184 209.712 71.1836 206.634C64.2699 203.704 57.1339 201.34 49.8251 199.666C33.6024 195.972 16.6637 195.554 0.268256 198.484C-0.200892 198.533 -0.0033574 199.247 0.46579 199.173Z" fill="#98A0AD"/>
<path d="M134.794 230.786C148.844 231.5 162.4 226.453 175.61 222.414C189.437 218.204 203.314 214.117 217.216 210.128C231.043 206.163 244.871 202.002 258.921 198.826C272.921 195.674 287.193 194.172 301.539 193.753C317.515 193.261 333.49 193.975 349.441 194.714C349.911 194.738 349.911 194 349.441 193.975C321.268 192.695 292.724 191.439 264.871 196.831C250.747 199.564 236.92 203.75 223.092 207.665C209.191 211.63 195.314 215.692 181.462 219.854C173.783 222.168 166.128 224.68 158.399 226.797C150.695 228.915 142.794 230.441 134.769 230.047C134.325 230.023 134.325 230.762 134.794 230.786Z" fill="#98A0AD"/>
<path d="M74.843 205.523C84.5963 208.33 94.72 206.385 104.449 204.514C114.869 202.519 125.387 201.165 136.005 200.746C157.043 199.958 177.957 202.962 198.92 203.8C210.525 204.267 222.18 203.996 233.637 202.101C234.106 202.027 233.909 201.313 233.44 201.386C212.822 204.809 191.883 202.765 171.191 201.214C160.845 200.426 150.475 199.761 140.079 199.934C129.783 200.106 119.486 201.091 109.313 202.888C98.0534 204.858 86.3494 208.109 75.0158 204.834C74.5714 204.686 74.3738 205.4 74.843 205.523Z" fill="#98A0AD"/>
<path d="M118.553 252.972C121.713 251.667 125.121 251.002 128.553 251.101C131.738 251.199 134.602 252.233 137.689 252.873C139.985 253.366 142.282 253.366 144.133 251.741C144.85 251.125 145.467 250.485 146.504 250.805C147.269 251.027 147.911 251.544 148.627 251.864C149.467 252.258 150.331 252.406 151.22 252.233C153.344 251.815 154.949 250.066 156.8 249.057C159.936 247.382 162.949 249.623 166.011 250.436C172.381 252.135 179.196 251.618 185.715 251.544C193.74 251.47 201.789 251.519 209.765 250.534C210.234 250.485 210.234 249.746 209.765 249.796C202.604 250.657 195.369 250.707 188.159 250.78C181.295 250.854 174.035 251.494 167.27 249.968C165.69 249.623 164.208 249.106 162.702 248.491C161.393 247.949 160.035 247.432 158.603 247.629C156.356 247.924 154.677 249.697 152.776 250.78C151.788 251.347 150.702 251.741 149.566 251.421C148.331 251.051 147.319 249.968 145.961 249.919C144.677 249.894 144.059 250.928 143.121 251.593C141.812 252.504 140.158 252.529 138.627 252.282C135.368 251.765 132.331 250.51 128.997 250.362C125.368 250.189 121.738 250.854 118.355 252.258C117.911 252.43 118.108 253.144 118.553 252.972Z" fill="#98A0AD"/>
<path d="M134.305 231.004C134.749 231.078 135.169 231.176 135.613 231.25C136.082 231.349 136.255 230.709 135.811 230.536C135.539 230.438 135.267 230.339 134.971 230.241C134.576 230.093 134.305 230.733 134.675 230.906C136.947 232.087 139.317 233.023 141.786 233.688C142.255 233.811 142.453 233.097 141.984 232.974C139.564 232.334 137.268 231.423 135.045 230.265C134.947 230.487 134.848 230.709 134.749 230.93C135.021 231.029 135.292 231.127 135.588 231.226C135.663 230.979 135.712 230.758 135.786 230.512C135.342 230.438 134.922 230.339 134.477 230.265C134.033 230.191 133.835 230.906 134.305 231.004Z" fill="#98A0AD"/>
<path d="M101.112 265.131C100.569 264.491 100.075 263.826 99.6556 263.087C99.4581 262.718 99.2111 262.324 99.0877 261.905C98.9148 261.634 98.8902 261.314 98.9889 260.994C98.9149 260.65 99.0136 260.379 99.2605 260.182C99.6309 259.172 99.1865 258.113 98.9395 257.079C98.5692 255.454 98.1988 253.829 97.8284 252.204C97.6309 251.342 97.4333 250.505 97.2605 249.643C97.1617 249.249 97.0876 248.88 96.9889 248.486C96.8407 247.796 96.6926 247.476 97.2111 246.91C97.458 246.393 97.8284 246.294 98.3222 246.688C98.5445 246.91 98.7667 247.132 98.9889 247.353C99.2358 247.673 99.4087 248.043 99.6062 248.387C99.9519 249.028 100.298 249.668 100.619 250.308C101.384 251.835 102.051 253.41 102.619 255.011C103.705 258.015 104.446 261.117 104.89 264.294C105.014 264.146 105.137 263.974 105.236 263.826C105.285 263.875 105.31 263.949 105.359 263.998C105.483 263.53 104.767 263.333 104.643 263.801C104.545 264.245 104.767 264.565 105.236 264.565C105.508 264.565 105.631 264.343 105.582 264.097C105.014 260.034 103.952 256.07 102.322 252.302C101.557 250.53 100.742 248.56 99.6062 246.984C98.9889 246.122 97.8778 245.334 96.816 245.95C95.6061 246.639 96.174 248.338 96.421 249.397C96.9148 251.564 97.4086 253.731 97.8778 255.897C98.1 256.932 98.5692 258.089 98.6185 259.148C98.6432 260.009 97.9272 260.403 98.0506 261.265C98.2976 262.866 99.5075 264.491 100.52 265.673C100.89 265.993 101.409 265.476 101.112 265.131Z" fill="#98A0AD"/>
<path d="M103.386 254.548C103.016 252.332 103.065 250.067 103.584 247.876C103.707 247.309 103.88 246.768 104.078 246.226C104.423 245.29 104.917 245.389 105.411 246.078C106.053 246.989 106.547 247.999 106.917 249.033C108.423 253.317 107.757 257.922 107.115 262.28C107.041 262.748 107.757 262.945 107.831 262.477C108.646 256.986 109.485 250.757 106.152 245.857C105.781 245.315 105.287 244.404 104.522 244.527C103.707 244.675 103.436 245.783 103.213 246.423C102.324 249.107 102.176 251.963 102.645 254.721C102.769 255.213 103.485 255.016 103.386 254.548Z" fill="#98A0AD"/>
<path d="M104.714 248.89C105.455 252.731 105.727 256.597 105.603 260.488C105.579 260.955 106.319 260.955 106.344 260.488C106.492 256.523 106.171 252.584 105.43 248.693C105.332 248.225 104.64 248.422 104.714 248.89Z" fill="#98A0AD"/>
<path d="M13.9012 196.381C13.1851 194.805 11.5801 193.697 10.5678 192.318C9.45663 190.792 8.51834 189.142 7.60473 187.517C7.53066 187.689 7.45658 187.886 7.3825 188.059C12.3456 187.172 15.2099 192.047 16.1729 196.159C16.2716 196.627 16.9877 196.43 16.8889 195.962C15.8272 191.407 12.5678 186.409 7.18497 187.344C6.93805 187.394 6.86397 187.689 6.96274 187.886C7.87634 189.536 8.78995 191.186 9.92578 192.688C10.9382 194.067 12.5678 195.224 13.2592 196.75C13.4567 197.194 14.0987 196.824 13.9012 196.381Z" fill="#98A0AD"/>
<path d="M16.0489 192.429C16.4193 188.564 20.1231 186.151 21.5552 182.728C21.3824 182.802 21.1848 182.876 21.012 182.95C22.6664 184.008 21.4318 187.85 20.9626 189.327C20.2712 191.494 19.1354 193.464 17.6786 195.187C17.3823 195.557 17.9008 196.074 18.1971 195.704C20.0243 193.562 21.333 191.075 21.9997 188.342C22.4194 186.618 23.2096 183.491 21.3824 182.309C21.1601 182.162 20.9132 182.334 20.8391 182.531C19.3576 186.077 15.7032 188.391 15.3081 192.429C15.2588 192.897 15.9995 192.897 16.0489 192.429Z" fill="#98A0AD"/>
<path d="M235.312 203.595C235.09 203.029 234.868 202.462 234.645 201.896C234.522 201.625 234.423 201.33 234.3 201.059C234.152 200.862 234.152 200.64 234.275 200.419C234.497 200.616 234.942 200.492 234.917 200.148C234.794 198.917 234.67 197.661 234.547 196.43C234.522 196.134 234.226 194.977 234.399 194.755C235.164 193.696 235.682 195.445 235.757 195.716C236.423 197.981 236.399 200.591 236.374 202.93C236.374 203.398 237.115 203.398 237.115 202.93C237.139 201.009 237.041 199.114 236.769 197.218C236.596 196.011 236.399 194.263 235.213 193.549C234.448 193.081 233.806 193.573 233.658 194.386C233.51 195.174 233.757 196.11 233.831 196.873C233.929 197.956 234.053 199.04 234.152 200.123C234.374 200.025 234.571 199.951 234.794 199.852C234.374 199.458 233.732 199.532 233.485 200.074C233.312 200.443 233.46 200.837 233.584 201.206C233.88 202.068 234.275 202.905 234.596 203.767C234.769 204.235 235.485 204.038 235.312 203.595Z" fill="#98A0AD"/>
<path d="M236.968 199.585C236.869 196.138 237.585 192.764 239.092 189.637C238.894 189.662 238.696 189.686 238.499 189.711C240.104 191.041 239.042 194.636 238.771 196.359C238.4 198.674 237.931 200.988 237.338 203.254C237.215 203.721 237.931 203.918 238.054 203.451C238.771 200.693 239.314 197.886 239.709 195.054C239.956 193.232 240.672 190.548 239.017 189.169C238.845 189.022 238.548 189.022 238.425 189.243C236.869 192.469 236.104 195.965 236.203 199.56C236.252 200.053 236.993 200.053 236.968 199.585Z" fill="#98A0AD"/>
<path d="M107.383 274.951C108.939 273.375 111.359 275.493 113.161 275.394C114.026 275.345 114.816 275.025 115.606 274.754C116.668 274.409 117.68 274.286 118.791 274.385C123.186 274.754 127.458 275.074 131.878 274.778C132.347 274.754 132.347 274.015 131.878 274.04C129.483 274.188 127.112 274.237 124.717 274.138C122.297 274.04 119.779 273.449 117.384 273.621C116.421 273.695 115.532 274.015 114.618 274.311C113.285 274.729 112.272 274.655 110.988 274.188C109.581 273.67 108.001 273.252 106.84 274.434C106.519 274.778 107.038 275.296 107.383 274.951Z" fill="#98A0AD"/>
<path d="M60.7407 280.933C62.4692 279.062 65.5063 278.938 67.3335 280.711C67.3582 280.514 67.3829 280.317 67.4076 280.12C66.1236 280.736 64.8149 281.007 63.4075 280.933C62.9383 280.908 62.9383 281.647 63.4075 281.672C64.9631 281.746 66.3952 281.45 67.8027 280.761C68.0249 280.662 68.0496 280.342 67.8767 280.17C65.7532 278.126 62.2223 278.224 60.2222 280.391C59.9012 280.761 60.4198 281.278 60.7407 280.933Z" fill="#98A0AD"/>
<path d="M27.2115 267.271C27.2609 267.074 27.409 266.951 27.6066 266.951C27.7794 266.927 27.9523 266.902 28.1004 266.877C28.4955 266.828 28.8659 266.853 29.2609 266.902C30.0264 267 30.7178 267.271 31.3844 267.69C31.4091 267.468 31.4338 267.247 31.4832 267.025C30.5696 267.345 29.656 267.419 28.693 267.271C28.2239 267.197 28.0263 267.911 28.4955 267.985C29.5819 268.158 30.619 268.084 31.6807 267.739C31.977 267.641 32.0511 267.247 31.7795 267.074C30.4955 266.262 28.8165 265.868 27.3103 266.286C26.4954 266.508 25.8534 267.764 27.014 268.01C27.4831 268.084 27.6806 267.37 27.2115 267.271Z" fill="#98A0AD"/>
<path d="M47.6583 97.9393C41.7816 95.871 37.584 90.1831 36.942 84.0274C36.2753 77.6747 39.8556 71.6175 45.2385 68.3673C51.0411 64.8708 59.2882 64.8462 64.0538 70.1401C66.4983 72.824 68.0045 76.4928 68.8934 79.9646C69.807 83.535 69.9552 87.4992 67.9057 90.7248C65.8316 93.9504 62.1278 95.7479 58.6462 97.1021C54.9671 98.5549 50.5473 99.6876 46.9422 97.4222C46.5472 97.176 46.1768 97.8162 46.5719 98.0624C49.8065 100.082 53.7078 99.5644 57.1647 98.4318C60.5475 97.3237 64.1279 95.7725 66.7452 93.261C72.5972 87.6716 70.2021 78.438 66.5477 72.3069C64.6217 69.0567 61.7327 66.6683 58.0536 65.6834C54.5474 64.7477 50.7942 65.0678 47.4608 66.4221C41.3372 68.9336 36.5469 74.7938 36.1518 81.4913C35.7074 88.8781 40.4729 96.1911 47.4608 98.6534C47.9052 98.8258 48.1028 98.1117 47.6583 97.9393Z" fill="#98A0AD"/>
<path d="M233.32 240.876C250.16 239.817 266.901 237.551 283.396 234.08C288.161 233.07 292.902 231.962 297.618 230.756C298.087 230.633 297.89 229.918 297.421 230.042C281.075 234.203 264.432 237.207 247.642 238.955C242.876 239.447 238.111 239.841 233.345 240.137C232.851 240.161 232.851 240.9 233.32 240.876Z" fill="#98A0AD"/>
<path d="M194.721 258.658C196.894 259.027 199.116 259.003 201.265 258.486C202.598 258.166 203.561 257.649 204.944 258.092C205.808 258.363 206.623 258.461 207.512 258.289C208.499 258.092 209.413 257.599 210.253 257.058C211.166 256.442 212.08 255.58 213.191 255.359C214.475 255.112 215.635 256.122 216.87 256.393C217.759 256.59 218.673 256.565 219.561 256.417C220.031 256.344 219.833 255.629 219.364 255.703C217.808 255.974 216.598 255.58 215.191 254.965C214.598 254.694 214.03 254.546 213.364 254.595C211.364 254.817 209.981 256.688 208.129 257.353C206.944 257.772 205.981 257.624 204.82 257.255C203.931 256.984 203.289 257.131 202.425 257.402C199.981 258.166 197.487 258.387 194.968 257.969C194.474 257.87 194.252 258.584 194.721 258.658Z" fill="#98A0AD"/>
<path d="M186.374 273.579C191.658 273.579 196.942 273.579 202.226 273.579C203.189 273.579 203.189 272.102 202.226 272.102C196.942 272.102 191.658 272.102 186.374 272.102C185.436 272.102 185.436 273.579 186.374 273.579Z" fill="#030235"/>
<path d="M207.885 273.356C210.132 273.356 212.379 273.356 214.626 273.356C215.589 273.356 215.589 271.879 214.626 271.879C212.379 271.879 210.132 271.879 207.885 271.879C206.922 271.879 206.922 273.356 207.885 273.356Z" fill="#030235"/>
<path d="M217.662 277.052C219.193 277.052 220.699 277.052 222.23 277.052C223.193 277.052 223.193 275.574 222.23 275.574C220.699 275.574 219.193 275.574 217.662 275.574C216.699 275.574 216.699 277.052 217.662 277.052Z" fill="#030235"/>
<path d="M108.053 96.8915C106.942 96.6206 106.794 95.1925 107.337 94.3553C108.103 93.1734 109.905 93.2473 111.115 93.4689C113.14 93.8383 115.017 94.6262 117.066 93.8629C119.041 93.1242 120.523 91.5237 122.745 91.4745C125.066 91.4252 127.264 92.4347 129.609 92.3609C133.708 92.2378 137.437 90.2187 141.363 89.283C143.684 88.7167 145.956 88.6674 148.277 89.2584C150.499 89.8247 152.573 90.7358 154.795 91.2775C157.116 91.8684 159.413 91.7699 161.758 91.5729C164.326 91.376 166.968 91.179 169.29 92.5086C169.24 92.3609 169.166 92.2378 169.117 92.09C167.882 95.7096 163.882 97.187 160.351 97.3839C155.931 97.6302 151.635 96.0297 147.19 96.202C142.696 96.3744 138.894 99.1075 134.474 99.5261C129.955 99.9693 125.683 97.8271 121.19 97.9503C116.622 98.0734 110.671 100.56 107.066 96.4975C106.745 96.1528 106.226 96.6699 106.547 97.0146C109.387 100.191 113.881 99.6246 117.659 99.0583C120.449 98.6397 122.992 98.6151 125.782 99.1568C128.153 99.6246 130.523 100.265 132.943 100.314C137.832 100.437 141.955 97.2854 146.77 96.9653C151.635 96.6453 156.351 98.5905 161.215 98.0488C164.845 97.6548 168.623 95.9558 169.857 92.2624C169.907 92.1146 169.833 91.9177 169.685 91.8438C165.339 89.3076 160.104 91.6961 155.437 90.6373C152.869 90.0463 150.474 88.9137 147.882 88.372C145.635 87.8795 143.412 88.0026 141.19 88.5443C138.82 89.1107 136.573 90.0463 134.252 90.7604C131.585 91.5729 129.042 91.8192 126.276 91.2529C124.078 90.785 122.054 90.4157 119.98 91.4498C119.017 91.9423 118.128 92.6071 117.14 93.0503C115.461 93.789 113.856 93.3458 112.152 92.9272C110.35 92.5086 107.634 92.2131 106.621 94.2076C105.979 95.4634 106.424 97.2608 107.905 97.6055C108.325 97.704 108.523 96.99 108.053 96.8915Z" fill="#98A0AD"/>
<path d="M5.23727 134.827C8.59538 134.384 11.7806 136.108 15.1141 135.689C16.4721 135.517 17.7314 134.926 18.9907 134.409C19.5833 134.162 20.2006 133.941 20.8426 133.793C22.0525 133.522 23.139 133.842 24.3242 134.089C27.6329 134.803 31.3367 134.015 34.6454 133.547C36.2751 133.325 37.8801 133.079 39.5097 132.808C41.3616 132.488 43.2135 131.996 45.0654 131.799C47.0161 131.602 49.3124 132.463 48.5223 134.852C47.8556 136.896 45.3617 137.487 43.4851 137.634C40.2258 137.88 36.9911 136.945 33.7318 137.56C30.6947 138.127 27.9786 139.703 25.0402 140.564C23.4106 141.057 21.7809 141.254 20.1018 141.032C18.4228 140.786 16.8425 140.367 15.1141 140.491C11.6078 140.712 7.87931 142.756 4.37305 141.943C2.22485 141.451 1.11371 139.481 2.15077 137.437C3.16315 135.467 5.48419 134.95 7.50893 134.95C7.97808 134.95 7.97808 134.212 7.50893 134.212C4.66936 134.212 1.31125 135.443 1.01494 138.693C0.743333 141.697 3.70637 142.928 6.24964 142.83C8.10154 142.756 9.92875 142.214 11.7313 141.796C14.077 141.254 16.2252 141.057 18.5956 141.5C20.3488 141.82 21.9784 141.993 23.7563 141.648C25.5835 141.303 27.3119 140.564 29.0156 139.875C30.7441 139.186 32.4972 138.471 34.3491 138.201C36.522 137.88 38.6949 138.225 40.8678 138.348C43.7074 138.521 48.226 138.398 49.2631 135.049C49.6334 133.842 49.3618 132.439 48.3001 131.651C47.263 130.888 45.8556 130.937 44.6457 131.085C40.2011 131.7 35.8306 132.71 31.3367 133.202C28.8181 133.473 26.3983 133.793 23.9291 133.202C21.929 132.71 20.3488 133.054 18.4722 133.818C17.4845 134.212 16.5215 134.655 15.4844 134.852C14.2005 135.098 12.8671 134.926 11.5831 134.704C9.48429 134.31 7.43486 133.768 5.31135 134.039C4.76813 134.138 4.76812 134.876 5.23727 134.827Z" fill="#98A0AD"/>
<path d="M306.107 164.105C301.441 165.73 295.984 161.889 292.626 158.984C292.576 159.181 292.527 159.402 292.453 159.599C294.823 158.639 297.317 158.59 299.836 158.737C302.329 158.861 304.823 159.033 307.317 159.107C312.626 159.254 317.959 159.131 323.244 158.737C325.984 158.54 328.7 158.27 331.417 157.949C332.75 157.777 334.355 157.457 335.614 158.073C337.367 158.959 337.219 160.88 335.54 161.618C334.676 161.988 333.738 162.111 332.824 162.283C331.392 162.529 329.96 162.8 328.528 163.046C325.91 163.514 323.293 163.982 320.651 164.45C319.145 164.721 317.638 164.992 316.132 165.263C314.725 165.509 313.268 165.878 311.811 165.903C309.342 165.927 307.49 163.761 305.021 164.031C304.552 164.081 304.552 164.819 305.021 164.77C306.428 164.598 307.539 165.361 308.749 165.927C309.737 166.395 310.7 166.641 311.786 166.641C314.626 166.617 317.564 165.755 320.355 165.238C323.367 164.696 326.404 164.154 329.417 163.613C330.849 163.367 332.281 163.096 333.713 162.849C334.676 162.677 335.688 162.455 336.528 161.889C337.935 160.929 337.985 159.156 336.799 157.999C334.948 156.177 331.762 157.137 329.515 157.383C323.441 158.048 317.317 158.393 311.194 158.368C307.836 158.368 304.478 158.245 301.12 158.023C298.132 157.851 295.095 157.703 292.28 158.836C292.058 158.934 291.885 159.254 292.107 159.451C295.663 162.529 301.342 166.494 306.305 164.77C306.749 164.672 306.576 163.957 306.107 164.105Z" fill="#98A0AD"/>
<path d="M192.872 294.19C192.65 292.787 194.65 293.008 195.44 293.279C196.057 293.476 196.65 293.722 197.292 293.796C198.823 293.993 200.329 293.476 201.761 293.008C203.144 292.541 204.601 292.024 206.082 292.171C207.86 292.344 209.292 293.796 209.02 295.668C208.724 297.613 206.724 298.524 204.946 297.982C203.736 297.613 202.675 296.85 201.415 296.653C198.749 296.259 195.958 298.573 193.39 297.342C192.971 297.145 192.576 297.761 193.02 297.982C194.551 298.721 196.082 298.376 197.637 297.933C198.625 297.662 199.662 297.317 200.699 297.342C201.909 297.367 202.897 297.958 203.959 298.401C205.465 299.041 207.045 299.164 208.378 298.081C209.514 297.17 210.008 295.717 209.662 294.313C208.625 290.251 203.934 291.506 201.119 292.442C199.786 292.885 198.378 293.304 196.946 293.008C196.032 292.811 195.168 292.245 194.181 292.27C192.995 292.294 191.934 293.156 192.131 294.387C192.23 294.855 192.946 294.658 192.872 294.19Z" fill="#98A0AD"/>
<path d="M164.402 285.983C165.587 284.875 167.217 284.407 168.822 284.751C169.488 284.899 171.34 285.392 170.18 286.278C169.562 286.746 168.204 286.697 167.464 286.697C166.994 286.697 166.994 287.435 167.464 287.435C168.55 287.435 170.451 287.386 171.266 286.524C171.958 285.786 171.167 284.973 170.501 284.604C168.377 283.372 165.636 283.84 163.883 285.465C163.538 285.786 164.056 286.303 164.402 285.983Z" fill="#98A0AD"/>
<path d="M150.67 302.305C150.472 302.231 150.299 302.157 150.102 302.084C150.077 302.281 150.053 302.478 150.028 302.675C151.534 301.591 153.238 302.379 154.843 302.748C156.201 303.069 157.386 302.921 158.719 302.601C160.374 302.207 162.053 301.96 163.757 301.862C164.547 301.813 165.337 301.788 166.127 301.763C166.868 301.739 168.72 301.37 168.078 302.625C167.312 304.127 165.09 304.177 163.732 303.733C162.571 303.364 161.485 302.822 160.25 303.118C158.966 303.413 157.88 304.226 156.546 304.497C154.769 304.866 153.016 304.694 151.312 304.078C150.867 303.93 150.67 304.62 151.114 304.792C152.793 305.383 154.546 305.58 156.324 305.285C158.324 304.94 160.102 303.389 162.176 303.955C163.658 304.374 164.868 305.038 166.448 304.57C167.46 304.275 168.892 303.389 169.09 302.256C169.337 300.926 167.683 300.976 166.818 301C164.818 301.049 162.794 301.148 160.794 301.443C159.707 301.616 158.67 301.911 157.608 302.108C156.3 302.354 155.238 302.108 153.979 301.763C152.497 301.345 150.966 301.099 149.633 302.034C149.435 302.182 149.386 302.428 149.559 302.625C149.929 303.044 150.324 303.142 150.843 303.044C151.336 302.945 151.139 302.231 150.67 302.305Z" fill="#98A0AD"/>
<path d="M252.646 288.206C254.078 287.615 255.584 287.295 257.14 287.32C258.745 287.345 260.103 287.96 261.634 288.305C263.881 288.847 265.56 287.468 267.387 286.409C270.276 284.71 273.14 285.818 276.152 286.434C278.301 286.877 280.597 286.951 282.449 285.646C282.844 285.375 282.474 284.735 282.079 285.005C279.758 286.68 276.893 285.867 274.35 285.252C271.955 284.685 269.584 284.365 267.337 285.596C266.35 286.138 265.436 286.852 264.399 287.32C262.819 288.034 261.535 287.468 260.004 287.025C257.51 286.31 254.868 286.507 252.473 287.492C252.004 287.665 252.201 288.379 252.646 288.206Z" fill="#98A0AD"/>
<path d="M80.5637 127.145C81.0061 125.524 81.7278 123.209 82.8918 120.523C89.4803 105.31 101.866 97.7379 105.684 95.6077C110.712 92.7827 115.392 90.1662 122.003 90.1662C129.221 90.1662 135.273 93.269 137.113 94.2878C138.719 95.1677 138.323 95.1446 143.003 98.1547C148.567 101.744 151.337 103.55 153.828 104.615C159.299 106.977 164.235 106.907 167.285 106.861C177.644 106.722 185.304 102.346 191.101 98.9189C198.551 94.5425 204.022 89.5641 212.472 81.8534C215.406 79.1906 219.34 75.4394 225.649 71.0399C226.557 70.3916 230.026 67.9834 233.728 65.8994C238.081 63.445 248.465 57.7488 262.899 56.5679C274.236 55.6416 283.618 57.8646 289.718 59.9254C288.135 62.4956 286.249 66.0847 284.713 70.6C281.756 79.3527 281.896 86.6234 281.989 88.8463C282.385 98.5252 285.714 106.838 286.598 108.968C288.251 112.928 289.928 115.706 290.416 120.685C291.022 126.705 289.252 129.785 288.717 130.618C287.297 132.888 285.411 134.231 284.177 134.925C282.897 134.138 280.964 133.05 278.473 131.961C273.724 129.901 266.228 126.636 257.66 128.326C250.909 129.646 246.462 133.443 243.11 136.291C238.733 140.019 239.548 141.617 234.077 147.059C229.328 151.806 224.904 154.607 223.182 155.649C219.643 157.803 216.849 158.96 211.751 161.068C207.025 163.013 204.65 164.008 201.624 164.634C199.109 165.166 194.523 166.139 189.238 165.189C183.372 164.124 179.53 161.207 174.944 157.641C173.361 156.413 169.1 152.986 162.233 144.789C153.968 134.925 149.824 129.993 146.611 123.695C144.26 119.041 142.584 114.479 137.741 112.002C136.763 111.492 133.714 109.987 130.408 110.844C126.38 111.909 124.285 115.938 123.703 116.911C121.096 121.449 111.481 126.173 80.5637 127.145Z" fill="#2466C5"/>
<path opacity="0.14" d="M127.938 112.251C127.961 111.279 128.17 107.852 130.522 106.439C132.501 105.235 134.992 106.092 135.969 106.439C144.397 109.357 156.573 125.311 165.606 132.304C181.064 144.275 201.924 141.149 206.138 140.524C223.784 137.884 235.797 127.372 243.433 120.68C251.605 113.525 253.956 108.894 269.042 94.8153C274.42 89.8138 279.006 85.8311 282.126 83.1914C281.684 88.2161 282.079 92.2451 282.522 94.9774C283.336 100.072 284.896 104.309 286.619 108.986C289.04 115.562 289.809 116.049 290.297 119.545C290.693 122.37 291.229 126.677 288.738 130.637C287.317 132.906 285.408 134.249 284.198 134.943C283.057 134.133 281.334 132.998 279.123 131.887C275.77 130.197 267.715 126.168 258.147 128.066C251.325 129.432 246.832 133.184 244.178 135.407C239.825 139.042 240.383 140.269 235.611 145.34C228.44 152.912 220.874 156.895 216.847 158.955C212.447 161.225 208.629 163.193 202.971 164.304C199.828 164.929 192.542 166.388 184.673 163.887C178.433 161.919 174.383 157.751 166.304 149.415C161.858 144.831 156.177 138.972 150.939 130.034C149.379 127.372 148.075 124.825 145.282 120.934C141.208 115.261 137.296 109.982 132.547 110.214C130.522 110.353 128.939 111.418 127.938 112.251Z" fill="#98A0AD"/>
<path d="M127.447 112.766C129.379 110.543 132.615 110.358 135.223 111.4C138.226 112.604 140.321 115.383 142.067 117.953C145.979 123.673 149.89 129.369 154.01 134.926C157.991 140.275 161.996 145.647 166.396 150.672C170.493 155.349 175.149 159.679 180.713 162.597C186.091 165.398 192.028 166.626 198.058 165.769C204.669 164.843 210.862 161.994 216.892 159.239C222.502 156.669 228.043 153.728 232.443 149.352C236.471 145.346 239.544 140.506 243.502 136.431C248.507 131.291 254.932 128.512 262.149 128.419C269.646 128.327 276.84 131.059 283.219 134.81C283.614 135.042 283.964 134.44 283.568 134.208C272.998 127.979 259.053 124.599 248.018 131.754C243.199 134.88 239.823 139.58 236.285 143.98C234.445 146.249 232.536 148.472 230.325 150.394C227.834 152.57 225.04 154.353 222.13 155.905C219.29 157.433 216.356 158.753 213.4 160.049C210.117 161.485 206.788 162.874 203.342 163.893C196.568 165.885 189.723 165.861 183.204 163.013C177.082 160.35 172.006 155.881 167.583 150.973C162.834 145.693 158.573 139.928 154.336 134.231C151.938 130.99 149.587 127.725 147.282 124.413C145.21 121.426 143.301 118.277 141.043 115.406C139.204 113.044 136.876 110.891 133.826 110.289C131.335 109.803 128.634 110.312 126.912 112.303C126.655 112.604 127.144 113.114 127.447 112.766Z" fill="#030235"/>
<path d="M80.7724 128.071C81.8899 119.92 87.9894 113.066 93.2509 107.116C98.7219 100.91 105.147 95.1906 113.086 92.3425C116.951 90.9532 121.095 90.2353 125.192 90.5595C129.266 90.8837 133.061 92.3425 136.576 94.3801C142.932 98.0618 148.426 103.225 155.48 105.634C170.543 110.774 186.607 103.318 198.457 94.2644C204.999 89.2628 210.935 83.5898 217.174 78.2409C223.367 72.9384 229.886 68.1221 237.219 64.4867C251.304 57.5169 267.787 54.5531 283.292 58.0264C285.131 58.4432 286.947 58.9526 288.763 59.5315C289.182 59.6704 289.368 58.9989 288.949 58.86C274.026 54.0205 257.706 55.4098 243.249 61.0829C235.869 63.9773 229.024 67.9831 222.762 72.7994C216.034 77.9862 209.934 83.8676 203.462 89.3323C191.309 99.6132 175.292 109.616 158.577 105.773C150.871 103.99 145.027 98.8028 138.509 94.7043C135.342 92.713 131.92 91.0226 128.219 90.2585C124.424 89.4944 120.489 89.6565 116.741 90.5364C108.733 92.3656 101.911 97.2051 96.2308 102.924C93.3207 105.865 90.6434 109.037 88.0593 112.279C85.6148 115.382 83.2635 118.624 81.7036 122.259C80.9354 124.065 80.3999 125.918 80.1438 127.84C80.0274 128.326 80.7026 128.511 80.7724 128.071Z" fill="#030235"/>
<path d="M289.394 59.7828C283.877 68.7207 281.199 79.2563 281.642 89.7457C281.851 94.8398 282.806 99.9108 284.505 104.727C286.438 110.192 289.534 115.471 290.116 121.353C290.628 126.424 288.905 132.328 283.97 134.69C283.574 134.875 283.923 135.477 284.319 135.292C288.23 133.417 290.256 129.341 290.768 125.196C291.42 119.871 289.348 114.777 287.346 109.96C285.111 104.635 283.318 99.3088 282.643 93.5431C282.014 88.148 282.247 82.6602 283.271 77.3576C284.459 71.2678 286.717 65.4326 289.976 60.1532C290.232 59.7596 289.627 59.4123 289.394 59.7828Z" fill="#030235"/>
<path d="M155.105 114.889C163.51 123.804 172.496 133.205 184.625 136.794C190.795 138.6 197.244 138.438 203.529 137.281C209.396 136.192 215.146 134.363 220.571 131.885C226.647 129.13 232.328 125.541 237.473 121.28C237.822 121.002 237.333 120.516 236.984 120.794C228.021 128.227 217.312 133.529 205.904 136.077C199.572 137.489 192.937 138.091 186.558 136.563C180.854 135.197 175.592 132.349 170.936 128.875C165.279 124.661 160.437 119.497 155.618 114.38C155.292 114.056 154.803 114.542 155.105 114.889Z" fill="#030235"/>
<path d="M169.713 259.26L169.713 259.26C173.16 259.056 176.496 258.941 179.721 258.871C180.295 259.246 181.028 259.829 181.667 260.703L181.669 260.705C182.725 262.133 182.973 263.569 183.173 264.729C183.19 264.825 183.206 264.92 183.222 265.012L183.223 265.013C183.281 265.337 183.316 265.506 183.381 265.689C183.408 265.766 183.44 265.843 183.474 265.926L183.484 265.95C183.523 266.045 183.572 266.165 183.637 266.337C183.9 267.026 184.437 268.561 185.635 272.575C187.854 280.029 190.713 290.645 191.142 292.248C191.096 292.533 191.021 292.852 190.895 293.13C190.753 293.447 190.574 293.654 190.359 293.751L190.359 293.751L190.348 293.756C190.207 293.824 189.965 293.885 189.447 293.678C188.905 293.461 188.12 292.973 186.96 292.002C184.177 289.665 182.511 287.306 181.656 286.088C180.926 285.037 180.19 284.005 179.456 282.975C178.442 281.553 177.432 280.136 176.445 278.684L176.445 278.684L176.443 278.681L176.357 278.556C175.031 276.635 173.078 273.807 170.566 270.4L170.492 270.3L170.382 270.241C169.685 269.87 168.142 269.176 166.098 269.25L166.098 269.25L166.095 269.251C164.303 269.326 162.893 269.979 161.945 270.59C162.241 269.208 162.539 267.822 162.837 266.435C163.323 264.173 163.81 261.906 164.291 259.642C166.066 259.495 167.879 259.368 169.713 259.26Z" stroke="#030235" stroke-width="1.10263"/>
<path d="M109.452 187.95C108.241 190.011 106.588 192.952 104.795 196.564C102.397 201.357 100.838 205.155 92.8523 229.468C92.8523 229.468 92.2238 231.343 88.1263 251.257C87.9867 251.905 87.684 253.503 88.0798 255.448C88.0798 255.448 88.5221 257.532 89.9655 259.5C93.9233 264.918 102.607 267.535 102.607 267.535C112.874 270.638 121.767 271.726 125.748 272.166C131.754 272.837 140.997 273.648 152.777 273.717C158.271 273.741 162.881 273.602 166.14 273.463C165.605 271.494 165.093 269.457 164.65 267.303C163.509 262.001 162.858 256.999 162.508 252.461C158.225 252.09 153.755 251.581 149.099 250.863C137.877 249.15 127.773 246.626 118.927 243.824C119.416 242.689 120.161 240.906 121.069 238.753C124.607 230.533 128.635 221.155 134.176 210.527C135.968 207.077 138.599 202.214 142.045 196.471C144.582 184.94 136.411 174.682 127.145 173.988C119.648 173.455 111.78 179.128 109.452 187.95Z" fill="#030235"/>
<path opacity="0.14" d="M123.838 217.983C120.649 225.022 116.691 234.609 112.85 246.372C119.531 249.498 127.307 252.647 136.084 255.425C146.164 258.598 155.477 260.635 163.602 261.909C163.369 258.829 163.136 255.749 162.903 252.67C161.972 252.577 160.552 252.415 158.852 252.207C152.101 251.396 142.463 250.215 131.078 247.367C128.029 246.603 123.838 245.469 118.926 243.871C119.88 241.416 121.231 238.036 122.93 234.03C127.004 224.444 129.03 219.65 131.521 215.459C134.501 210.435 136.386 204.599 140.344 200.293C140.74 199.853 142.114 198.417 141.951 196.634C141.811 195.175 140.67 193.624 139.622 193.369C135.455 192.304 127.237 210.458 123.838 217.983Z" fill="#98A0AD"/>
<path d="M105.121 195.041C101 203.887 97.4618 213.01 94.575 222.341C91.6649 231.719 89.1971 241.421 87.8003 251.146C87.4976 253.254 87.4743 255.361 88.3125 257.352C89.0807 259.158 90.3612 260.71 91.7813 262.029C94.8311 264.854 98.6724 266.637 102.584 267.911C111.873 270.944 121.813 272.264 131.522 273.098C142.976 274.093 154.476 274.14 165.977 274.163C166.419 274.163 166.419 273.468 165.977 273.468C146.444 273.399 126.633 273.329 107.566 268.582C103.422 267.564 99.2777 266.29 95.6226 264.044C91.8278 261.705 88.1728 258.07 88.2892 253.323C88.359 250.892 88.941 248.414 89.4067 246.006C89.849 243.69 90.3146 241.375 90.8501 239.059C91.8744 234.452 93.0617 229.867 94.412 225.351C97.4385 215.071 101.233 205.044 105.773 195.342C105.913 194.972 105.307 194.624 105.121 195.041Z" fill="#030235"/>
<path d="M140.389 199.533C131.799 212.848 124.791 227.111 119.507 242.023C119.367 242.44 120.042 242.625 120.182 242.209C125.466 227.366 132.451 213.149 140.995 199.881C141.251 199.51 140.646 199.163 140.389 199.533Z" fill="#030235"/>
<path d="M116.972 243.388C131.638 248.575 146.957 251.77 162.485 252.835C162.928 252.858 162.928 252.164 162.485 252.141C147.027 251.076 131.755 247.88 117.158 242.716C116.739 242.554 116.553 243.226 116.972 243.388Z" fill="#030235"/>
<path d="M162.558 252.642C162.791 259.728 163.885 266.744 165.794 273.575C165.91 274.015 166.586 273.83 166.469 273.39C164.583 266.628 163.489 259.682 163.256 252.642C163.233 252.203 162.535 252.203 162.558 252.642Z" fill="#030235"/>
<path d="M163.834 259.48C168.258 259.156 172.681 258.809 177.104 258.531C178.175 258.461 179.339 258.345 180.317 258.878C181.109 259.318 181.621 260.105 181.993 260.892C182.855 262.768 183.39 264.852 184.019 266.82C186.673 275.017 189.071 283.307 191.189 291.643C191.306 292.083 191.981 291.897 191.864 291.457C189.56 282.381 186.952 273.373 183.996 264.482C183.437 262.814 183.018 260.869 181.947 259.434C180.992 258.16 179.619 257.743 178.059 257.767C173.333 257.859 168.56 258.438 163.834 258.762C163.392 258.832 163.392 259.526 163.834 259.48Z" fill="#030235"/>
<path d="M165.467 270.383C169.82 268.832 172.498 273.625 174.314 276.658C176.269 279.947 178.318 283.188 180.646 286.245C182.764 289.047 185.139 291.918 187.933 294.094C188.887 294.835 190.005 295.206 191.029 294.372C192.216 293.423 192.123 291.848 191.891 290.482C191.821 290.042 191.146 290.227 191.215 290.667C191.425 291.848 191.518 293.678 190.028 294.071C188.911 294.349 187.956 293.215 187.211 292.543C186.024 291.455 184.906 290.297 183.835 289.093C181.507 286.453 179.435 283.559 177.526 280.595C175.803 277.932 174.407 274.968 172.428 272.467C170.728 270.337 168.028 268.693 165.257 269.689C164.862 269.851 165.048 270.522 165.467 270.383Z" fill="#030235"/>
<path d="M253.806 279.411C252.745 279.099 251.685 278.787 250.628 278.475C252.541 275.543 254.471 272.613 256.42 269.701C257.377 270.292 258.338 270.882 259.298 271.472C260.41 272.155 261.521 272.838 262.626 273.521L262.766 273.607L262.93 273.603C263.772 273.581 265.011 273.648 266.331 274.207C267.963 274.912 268.915 276.041 269.517 276.755L269.522 276.761C269.676 276.95 269.827 277.134 269.974 277.314C272.686 280.638 274.299 282.614 279.239 289.108L279.241 289.111C280.309 290.495 281.191 291.604 281.728 292.278C282.016 292.686 283.378 294.73 282.753 297.18C282.517 298.082 282.095 298.781 281.733 299.235C281.171 299.159 280.425 299.025 279.548 298.779L279.548 298.779L279.542 298.777C275.871 297.792 273.387 295.822 271.376 294.098L271.376 294.098C265.214 288.821 259.298 282.246 257.951 280.721L257.846 280.603L257.694 280.558C256.402 280.176 255.104 279.793 253.806 279.411Z" stroke="#030235" stroke-width="1.10263"/>
<path d="M124.814 201.684C124.674 199.855 124.581 197.354 124.907 194.39C125.489 189.042 126.676 177.834 134.196 174.245C142.181 170.425 152.122 177.672 152.634 178.089C154.147 179.872 156.312 182.419 158.966 185.429C162.459 189.366 176.66 205.227 196.192 222.13C219.683 242.484 242.568 257.141 256.699 265.547C256.396 267.075 255.931 268.765 255.232 270.548C253.16 275.804 249.994 279.417 247.666 281.616C243.639 280.25 238.051 278.236 231.533 275.457C223.361 271.961 215.329 267.908 200.499 259.133C182.759 248.62 173.913 243.364 165.206 236.718C157.476 230.814 146.954 221.922 135.709 209.441C133.87 207.774 132.613 206.246 131.798 205.158C130.983 204.069 130.68 203.514 129.935 202.935C128.329 201.684 126.28 201.569 124.814 201.684Z" fill="#030235"/>
<path opacity="0.14" d="M142.459 173.715C143.67 175.66 145.974 179.249 149.047 183.602C155.124 192.216 183.293 230.932 239.214 262.214C242.659 264.136 248.2 267.146 255.231 270.573C255.743 268.86 256.232 267.17 256.744 265.456C239.959 255.383 226.479 245.867 216.492 238.341C212.534 235.354 205.992 230.399 197.704 223.36C194.748 220.836 181.408 209.42 164.878 191.961C159.314 186.08 154.821 181.055 151.701 177.466C148.628 176.192 145.532 174.965 142.459 173.715Z" fill="#98A0AD"/>
<path d="M124.81 202.037C127.184 201.76 129.14 203.056 130.77 204.631C132.446 206.229 133.936 208.058 135.496 209.794C138.708 213.337 141.991 216.834 145.367 220.191C152.188 226.976 159.498 233.251 167.46 238.715C175.632 244.342 184.152 249.529 192.603 254.739C200.868 259.833 209.249 264.788 217.886 269.28C227.455 274.259 237.326 278.635 247.592 281.969C248.011 282.108 248.198 281.437 247.779 281.298C229.014 275.208 211.693 265.622 194.955 255.364C186.504 250.2 178.053 244.99 169.835 239.48C161.547 233.922 153.887 227.578 146.763 220.585C142.899 216.787 139.197 212.851 135.565 208.822C132.842 205.789 129.512 200.764 124.81 201.343C124.367 201.389 124.367 202.084 124.81 202.037Z" fill="#030235"/>
<path d="M152.405 178.346C163.859 191.915 176.244 204.697 189.421 216.599C202.458 228.362 216.287 239.268 230.791 249.202C234.935 252.05 239.149 254.805 243.386 257.491C245.481 258.811 247.6 260.131 249.718 261.404C250.742 262.03 251.79 262.655 252.838 263.257C253.233 263.488 256.609 265.225 256.516 265.549C256.632 265.109 255.957 264.924 255.841 265.364C255.818 265.41 255.818 265.457 255.794 265.503C255.771 265.619 255.794 265.758 255.888 265.85C256.609 266.499 257.401 265.642 256.819 264.901C256.33 264.253 255.236 263.882 254.561 263.465C253.513 262.863 252.489 262.238 251.441 261.613C247.413 259.205 243.432 256.704 239.498 254.157C231.629 249.04 223.946 243.668 216.45 238.018C201.527 226.741 187.396 214.422 174.242 201.154C166.815 193.675 159.691 185.895 152.893 177.837C152.614 177.513 152.125 177.999 152.405 178.346Z" fill="#030235"/>
<path d="M248.008 281.751C252.641 277.397 255.807 271.724 257.088 265.519C257.181 265.079 256.506 264.894 256.413 265.334C255.156 271.423 252.059 276.981 247.519 281.264C247.194 281.565 247.682 282.052 248.008 281.751Z" fill="#030235"/>
<path d="M250.648 278.892C253.069 279.54 255.397 280.443 257.655 281.555C258.051 281.763 258.4 281.161 258.004 280.953C255.7 279.795 253.325 278.892 250.834 278.22C250.415 278.105 250.229 278.776 250.648 278.892Z" fill="#030235"/>
<path d="M256.073 269.248C258.261 270.521 260.45 271.841 262.591 273.161C262.964 273.393 263.313 272.791 262.941 272.559C260.799 271.216 258.61 269.919 256.422 268.646C256.026 268.414 255.677 269.016 256.073 269.248Z" fill="#030235"/>
<path d="M262.911 273.396C264.076 273.35 265.309 273.281 266.427 273.628C267.707 274.022 268.639 274.925 269.523 275.897C271.06 277.588 272.41 279.417 273.714 281.269C276.158 284.743 278.486 288.308 281.583 291.272C281.909 291.573 282.398 291.087 282.072 290.786C278.556 287.429 276.042 283.261 273.202 279.37C271.921 277.611 270.571 275.758 268.918 274.299C267.195 272.748 265.146 272.609 262.911 272.702C262.446 272.725 262.446 273.42 262.911 273.396Z" fill="#030235"/>
<path d="M257.582 281.445C262.54 287.071 267.848 292.467 274.134 296.635C275.647 297.653 277.231 298.58 278.86 299.413C280.047 300.015 281.584 300.849 282.678 299.622C284.913 297.167 283.097 293.092 281.933 290.637C281.747 290.244 281.142 290.591 281.328 290.985C282.073 292.559 282.818 294.203 282.958 295.963C283.027 296.843 282.934 297.885 282.492 298.672C281.654 300.062 280.49 299.46 279.396 298.904C276.649 297.514 274.064 295.847 271.62 293.995C266.615 290.197 262.214 285.659 258.094 280.958C257.791 280.634 257.302 281.121 257.582 281.445Z" fill="#030235"/>
<path d="M80.4181 127.973C79.8128 128.853 78.9979 130.103 78.0434 131.631C76.4836 134.109 73.8063 138.369 71.3619 143.533C70.71 144.899 70.9661 144.436 65.5184 159.788C65.1692 160.784 63.9819 164.072 63.2834 168.518C62.6083 172.616 62.8644 174.538 63.5395 176.205C64.1448 177.664 65.0528 178.752 66.5195 180.141C68.5682 182.063 72.0137 184.865 77.345 187.343C78.2762 184.078 79.2075 180.813 80.1387 177.525C78.509 173.866 76.8794 170.231 75.2497 166.572C75.7619 165.646 76.5302 164.257 77.4381 162.59C80.3948 157.056 81.5123 154.555 83.0255 151.73C84.3758 149.206 86.4711 145.71 89.5208 141.727C86.4711 137.142 83.4446 132.557 80.4181 127.973Z" fill="white"/>
<path d="M80.4447 127.848C72.0869 138.291 67.4308 150.957 64.0551 163.738C63.9387 164.178 64.6138 164.363 64.7302 163.924C68.0594 151.281 72.6689 138.684 80.9336 128.357C81.213 127.987 80.7241 127.477 80.4447 127.848Z" fill="#030235"/>
<path d="M64.1465 163.704C63.2851 166.066 62.7729 168.543 62.6798 171.067C62.61 173.197 62.6798 175.605 63.7274 177.527C64.7285 179.38 66.6375 180.769 68.2905 182.019C70.3159 183.548 72.5043 184.868 74.7858 185.979C75.1816 186.164 75.5541 185.562 75.135 185.377C73.2027 184.451 71.3402 183.386 69.5942 182.135C67.8249 180.885 65.6597 179.38 64.4957 177.504C63.2851 175.582 63.2618 173.035 63.3782 170.859C63.4946 168.474 64.0068 166.135 64.8216 163.889C64.9846 163.472 64.3095 163.287 64.1465 163.704Z" fill="#030235"/>
<path d="M86.6827 144.087C82.7482 151.381 78.9302 158.768 75.2518 166.177C75.0423 166.571 75.6476 166.918 75.8571 166.525C79.5588 159.092 83.3535 151.728 87.288 144.435C87.4975 144.041 86.8922 143.694 86.6827 144.087Z" fill="#030235"/>
<path d="M72.0398 164.654C76.8357 166.483 76.8357 172.989 79.8156 176.486C80.095 176.833 80.6071 176.324 80.3045 176C77.1616 172.318 77.3246 165.927 72.2261 163.982C71.807 163.82 71.6441 164.491 72.0398 164.654Z" fill="#030235"/>
<path opacity="0.05" d="M81.1645 140.642C79.3253 140.967 78.8365 144.857 77.2534 150.53C76.1824 154.35 74.5994 159.051 72.1316 164.307C74.1105 167.155 76.066 170.027 78.0449 172.875C77.4163 170.142 76.7877 167.41 76.1592 164.678C79.5116 158.356 82.8407 152.012 86.1932 145.69C84.8429 143.282 82.8873 140.341 81.1645 140.642Z" fill="#98A0AD"/>
<path d="M93.8104 114.965C90.5278 116.771 88.2696 118.855 86.477 120.523C83.2642 123.51 81.006 126.427 79.5393 128.581C79.7954 132.772 80.4938 139.348 82.8219 147.012C85.9415 157.316 89.8294 162.503 94.7882 172.714C97.6285 178.55 101.47 187.395 104.822 198.996C110.247 197.699 116.16 195.962 122.376 193.624C134.691 188.993 144.795 183.343 152.664 178.087C147.356 169.982 144.283 162.897 142.444 157.941C140.256 152.014 133.923 138.074 129.314 118.994C128.638 116.169 128.126 113.807 127.777 112.14C117.883 110.033 110.13 110.635 105.59 111.307C98.7692 112.349 95.1607 114.201 93.8104 114.965Z" fill="#D9BC22"/>
<path d="M75.345 175.053C75.4847 175.864 75.6942 177.137 75.927 178.712C78.1852 192.767 78.5577 195.87 79.5355 201.056C80.0942 204.067 81.0022 208.489 82.3525 213.908C85.2393 214.533 89.0108 215.181 93.4108 215.436C96.5072 215.621 102.583 215.76 110.057 214.44C118.81 212.889 125.911 209.948 131.079 207.239C131.498 207.031 132.08 206.706 132.779 206.266C135.502 204.414 136.876 202.122 137.505 201.126C138.692 199.273 140.671 196.726 144.14 193.855C143.977 193.392 143.744 192.721 143.395 191.91C142.068 188.807 140.461 186.723 138.808 184.616C137.877 183.435 136.597 181.884 134.944 180.147C134.525 178.526 134.106 176.882 133.71 175.215C132.057 168.408 130.73 161.785 129.659 155.371C128.332 155.811 126.167 156.506 123.443 157.247C115.458 159.47 110.359 160.072 100.092 161.97C97.4151 162.457 93.3876 163.244 88.4288 164.286C87.451 164.911 86.4732 165.559 85.4954 166.277C81.4911 169.079 78.1387 172.112 75.345 175.053Z" fill="white"/>
<path d="M74.8823 174.304C75.9532 180.973 77.0241 187.641 78.1183 194.287C79.166 200.817 80.0041 207.439 82.0295 213.761C82.1692 214.177 82.8443 213.992 82.7046 213.575C80.6792 207.254 79.8411 200.632 78.7935 194.102C77.7226 187.433 76.6516 180.764 75.5574 174.119C75.4643 173.679 74.8125 173.864 74.8823 174.304Z" fill="#030235"/>
<path d="M82.2596 214.23C98.5562 217.773 115.9 215.457 130.684 207.723C131.079 207.515 130.73 206.913 130.334 207.121C115.737 214.763 98.5562 217.055 82.4459 213.559C82.0035 213.466 81.8173 214.114 82.2596 214.23Z" fill="#030235"/>
<path d="M116.698 164.465C118.235 167.985 119.399 171.643 120.19 175.394C120.912 178.868 120.912 182.526 122.332 185.814C125.428 192.923 128.199 200.032 130.061 207.58C130.178 208.02 130.853 207.835 130.736 207.395C128.874 199.962 126.22 192.854 123.1 185.861C121.541 182.364 121.564 178.497 120.749 174.792C119.957 171.134 118.77 167.568 117.28 164.118C117.117 163.701 116.512 164.048 116.698 164.465Z" fill="#030235"/>
<path d="M76.0434 175.262C80.0011 175.424 83.9356 174.961 87.8468 174.382C91.4553 173.85 95.0638 173.294 98.6257 172.553C105.144 171.21 111.616 169.08 116.808 164.796C117.157 164.518 116.668 164.032 116.319 164.31C111.127 168.593 104.609 170.654 98.067 171.974C94.7611 172.645 91.432 173.155 88.1028 173.641C84.0986 174.243 80.0943 174.706 76.0434 174.544C75.6011 174.544 75.6011 175.239 76.0434 175.262Z" fill="#030235"/>
<path d="M76.4421 174.775C79.3755 172.181 82.3322 169.588 85.2655 167.018C86.7788 165.698 88.1058 164.587 90.1079 164.1C91.9006 163.66 93.7397 163.359 95.5789 163.035C102.843 161.762 110.176 160.905 117.393 159.377C121.514 158.497 125.565 157.385 129.476 155.88C129.895 155.718 129.709 155.047 129.289 155.209C122.142 157.964 114.599 159.353 107.056 160.534C103.308 161.113 99.5367 161.669 95.7885 162.317C92.4826 162.896 88.7809 163.151 86.1269 165.351C82.6581 168.245 79.3289 171.325 75.9299 174.312C75.604 174.566 76.0929 175.076 76.4421 174.775Z" fill="#030235"/>
<path d="M129.006 155.373C125.491 159.17 121.277 162.203 116.528 164.31C116.108 164.496 116.481 165.098 116.877 164.913C121.673 162.782 125.933 159.703 129.495 155.859C129.798 155.535 129.309 155.048 129.006 155.373Z" fill="#030235"/>
<path d="M129.337 155.419C130.827 162.736 132.317 170.053 133.831 177.37C134.11 178.782 134.413 180.125 135.344 181.26C136.322 182.487 137.532 183.506 138.533 184.71C139.604 186.053 140.559 187.512 141.443 188.994C141.886 189.758 142.328 190.522 142.747 191.286C142.933 191.633 143.143 192.004 143.329 192.351C143.422 192.536 143.515 192.698 143.608 192.884C143.771 193.277 144.051 193.578 144.447 193.787C144.353 193.903 144.284 194.018 144.191 194.111C144.214 194.111 144.237 194.111 144.284 194.088C144.726 194.018 144.54 193.347 144.097 193.416C144.074 193.416 144.051 193.416 144.004 193.439C143.865 193.463 143.748 193.648 143.748 193.764C143.771 194.389 144.54 194.574 144.726 193.903C144.866 193.463 144.4 192.837 144.214 192.513C143.771 191.68 143.329 190.846 142.864 190.012C141.886 188.253 140.815 186.516 139.604 184.895C138.533 183.483 137.253 182.348 136.112 181.028C134.645 179.338 134.506 176.999 134.063 174.915C133.598 172.669 133.155 170.423 132.69 168.2C131.805 163.87 130.92 159.54 130.036 155.21C129.919 154.793 129.244 154.979 129.337 155.419Z" fill="#030235"/>
<path d="M130.92 207.795C133.76 205.549 136.321 203.002 138.765 200.339C139.976 198.996 141.163 197.63 142.351 196.264C142.909 195.616 144.469 194.435 144.143 193.439C144.12 193.323 144.027 193.231 143.91 193.208C143.864 193.208 143.817 193.185 143.771 193.185C143.328 193.092 143.142 193.763 143.585 193.856C143.305 193.787 142.095 195.546 141.862 195.801C141.419 196.334 140.954 196.866 140.488 197.376C139.441 198.58 138.37 199.784 137.275 200.942C135.134 203.211 132.875 205.364 130.431 207.309C130.082 207.587 130.571 208.073 130.92 207.795Z" fill="#030235"/>
<path d="M76.8587 185.772C79.6291 188.481 82.5392 191.051 85.8451 193.112C89.3139 195.266 93.1087 196.886 96.8103 198.577C97.2061 198.762 97.5786 198.16 97.1595 197.975C93.5743 196.331 89.9425 194.756 86.5668 192.718C83.1678 190.658 80.1879 188.041 77.3476 185.262C77.0217 184.985 76.5328 185.471 76.8587 185.772Z" fill="#030235"/>
<path d="M96.996 198.376C101.838 196.778 105.796 193.027 109.498 189.692C113.688 185.964 117.623 182.005 121.324 177.814C121.627 177.489 121.138 176.98 120.836 177.327C117.32 181.31 113.595 185.084 109.637 188.65C105.843 192.077 101.745 196.083 96.7865 197.727C96.3907 197.843 96.5769 198.514 96.996 198.376Z" fill="#030235"/>
<path d="M96.7646 197.818C97.2069 203.445 97.8821 209.025 98.79 214.583C98.8599 215.023 99.535 214.837 99.4652 214.397C98.5805 208.886 97.9054 203.376 97.463 197.818C97.4397 197.378 96.7413 197.378 96.7646 197.818Z" fill="#030235"/>
<path d="M82.934 169.137C84.3309 169.507 85.7976 169.16 87.1944 168.952C88.8241 168.72 90.4537 168.489 92.0601 168.211C95.5289 167.655 98.9745 167.03 102.42 166.335C109.218 164.946 115.969 163.279 122.628 161.357C123.047 161.241 122.884 160.569 122.441 160.685C116.063 162.538 109.614 164.135 103.118 165.502C99.9057 166.173 96.6697 166.775 93.4337 167.308C91.804 167.585 90.1976 167.84 88.568 168.072C86.8685 168.326 84.8198 168.928 83.1436 168.489C82.7012 168.35 82.515 169.021 82.934 169.137Z" fill="#030235"/>
<path opacity="0.14" d="M116.995 164.288C117.88 166.048 118.508 167.784 118.974 169.475C124.561 190.06 104.773 210.83 100.186 215.461C105.122 215.276 111.524 214.535 118.671 212.312C123.258 210.876 127.192 209.163 130.405 207.472C132.174 206.153 134.013 204.624 135.899 202.865C139.368 199.623 142.115 196.381 144.28 193.464C142.837 191.125 141.556 189.296 140.672 188.068C138.949 185.683 137.761 184.294 136.155 181.654C135.387 180.404 134.828 179.362 134.479 178.69C133.85 175.495 133.198 172.276 132.477 168.988C131.499 164.404 130.451 159.912 129.404 155.535C128.24 157.063 126.377 159.147 123.607 161.046C121.092 162.76 118.741 163.732 116.995 164.288Z" fill="#6B6E85"/>
<path d="M78.1414 172.23C77.6758 172.346 77.3033 172.601 76.5816 173.11C75.9763 173.527 75.5339 173.944 75.2313 174.222C74.9985 174.569 74.626 175.287 74.5329 176.282C74.4397 177.301 74.6958 178.089 74.8588 178.482C74.4863 178.783 74.0207 179.269 73.9508 179.895C73.9043 180.335 74.0672 180.612 74.3 181.307C74.4397 181.724 74.6027 182.372 74.7191 183.16C74.7889 183.993 74.8821 184.827 74.9752 185.707C75.1847 187.397 75.4408 189.018 75.7435 190.523C75.6969 190.847 75.6503 191.38 75.6271 192.005C75.6038 193.533 75.5805 195.571 76.7911 197.192C76.9773 197.423 77.7223 198.419 78.2345 198.257C78.7234 198.095 78.77 196.937 78.8398 195.617C78.8864 194.506 78.8398 193.579 78.77 192.908C78.9096 192.537 79.0493 192.051 79.1192 191.519C79.2821 190.5 79.1657 189.62 79.0493 189.018C79.2356 188.833 79.5382 188.485 79.7245 187.999C80.0737 187.05 79.771 186.193 79.6779 185.961C79.9573 185.915 80.3996 185.799 80.6091 185.452C80.9584 184.919 80.6557 184.202 80.3996 183.623C79.4451 181.492 78.3975 179.895 77.6758 178.644C77.3731 178.112 76.8842 177.232 76.3953 176.12C77.0006 175.426 77.5594 175.194 77.9319 175.125C78.77 174.963 79.1425 175.403 80.0737 175.194C80.2599 175.148 81.2377 174.916 81.4007 174.291C81.5404 173.689 80.9118 173.11 80.7023 172.925C80.0271 172.253 79.0261 172.022 78.1414 172.23Z" fill="white"/>
<path d="M74.554 174.219C73.5762 176.373 74.5773 179.267 75.4387 181.305C75.9043 182.416 76.5096 183.505 77.3011 184.431C77.8831 185.126 78.8377 186.191 79.7922 186.376C82.1668 186.816 80.3276 182.44 79.9086 181.606C79.1636 180.124 78.3022 178.712 77.4874 177.276C76.8588 176.188 76.3466 174.775 75.2524 174.034C74.8799 173.779 74.5307 174.382 74.9032 174.636C75.8344 175.285 76.3466 176.674 76.8821 177.623C77.3942 178.526 77.9297 179.429 78.4419 180.356C78.9541 181.259 79.4895 182.185 79.8387 183.181C80.025 183.69 80.3276 184.5 80.2578 185.033C80.3975 185.542 80.1647 185.704 79.5128 185.519C79.3266 185.403 79.1636 185.264 79.0006 185.126C77.5107 183.945 76.5329 182.254 75.881 180.495C75.2524 178.781 74.391 176.327 75.1826 174.59C75.3223 174.173 74.7402 173.826 74.554 174.219Z" fill="#030235"/>
<path d="M74.7442 178.142C73.1611 178.512 73.6733 180.388 73.9759 181.499C74.4648 183.305 75.2796 185.065 76.3506 186.593C76.8627 187.334 77.4215 188.029 78.0501 188.677C78.376 189.025 78.9115 189.719 79.4935 189.488C80.6575 189.025 80.0289 186.246 79.7728 185.435C79.6332 185.019 78.958 185.181 79.0977 185.621C79.3072 186.269 79.4236 186.894 79.4236 187.589C79.4236 187.983 79.3771 188.353 79.2839 188.747C79.0046 188.631 78.7485 188.446 78.5622 188.214C77.7707 187.496 77.1188 186.547 76.5601 185.667C76.1178 184.972 73.1145 179.276 74.9537 178.859C75.3728 178.72 75.1865 178.049 74.7442 178.142Z" fill="#030235"/>
<path d="M74.3913 182.724C74.0887 186.013 74.8337 189.903 76.9755 192.542C77.5342 193.237 78.4888 193.816 79.0941 192.82C79.8856 191.547 79.5597 189.532 79.0475 188.235C78.8845 187.819 78.2094 188.004 78.3724 188.421C78.6052 188.976 78.7681 189.555 78.8147 190.157C78.8613 190.644 78.9311 191.686 78.6285 192.125C77.7671 193.283 76.5099 190.481 76.2072 189.787C75.2294 187.564 74.8802 185.133 75.0898 182.724C75.1363 182.285 74.4379 182.285 74.3913 182.724Z" fill="#030235"/>
<path d="M75.3676 190.51C75.1814 192.015 75.2512 193.52 75.6237 195.002C75.8798 196.044 76.2989 197.757 77.2999 198.383C79.8608 200.003 79.2322 194.122 79.2555 193.173C79.2555 192.733 78.5571 192.733 78.5571 193.173C78.5338 194.215 78.5105 195.28 78.4873 196.322C78.4873 196.646 78.627 198.313 77.5328 197.688C77.1835 197.479 76.9507 196.669 76.7878 196.322C76.0428 194.469 75.8333 192.501 76.0661 190.533C76.1126 190.07 75.4142 190.093 75.3676 190.51Z" fill="#030235"/>
<path d="M76.2309 174.295C76.6499 173.253 77.6044 172.512 78.7452 172.512C79.3505 172.512 80.0722 172.743 80.4912 173.16C81.1897 173.855 80.3748 174.85 79.5367 174.804C78.3727 174.711 77.1388 174.549 76.6266 175.846C76.4637 176.263 77.1388 176.448 77.3018 176.031C77.8372 174.665 80.3516 176.054 81.3759 174.989C82.0976 174.248 81.6553 173.276 80.9801 172.674C79.141 171.007 76.4171 171.956 75.5324 174.109C75.3928 174.526 76.0679 174.711 76.2309 174.295Z" fill="#030235"/>
<path d="M127.94 112.258C127.125 113.531 126.334 115.013 125.705 116.727C123.098 123.697 124.471 130.18 125.402 133.329C128.173 137.543 130.966 141.804 133.737 146.134C136.298 150.094 138.812 154.053 141.303 157.989C138.905 161 136.507 164.01 134.109 167.02C132.084 169.567 130.082 172.091 128.08 174.638C126.287 174.453 124.797 174.453 123.749 174.499C118.884 174.661 118.022 175.796 117.813 176.097C117.72 176.236 117.324 176.838 117.533 177.255C117.696 177.556 118.069 177.556 118.767 177.857C119.256 178.065 119.652 178.297 119.885 178.482C117.557 180.797 115.671 182.604 114.041 184.039C113.762 184.294 112.505 185.382 111.783 187.188C111.667 187.489 111.108 188.855 111.504 189.133C111.76 189.319 112.295 188.971 114.018 187.929C114.926 187.373 115.671 186.934 116.113 186.679C115.089 187.883 114.53 188.994 114.228 189.782C113.971 190.43 113.157 192.444 113.832 193.023C114.111 193.255 114.437 193.07 115.299 193.348C115.787 193.51 116.16 193.718 116.416 193.857C117.277 192.908 117.953 192.097 118.372 191.565C119.28 190.43 119.582 189.921 120.304 189.411C121.119 188.832 121.957 188.578 122.492 188.462C121.98 189.758 121.608 190.847 121.351 191.657C120.769 193.44 120.63 194.112 120.979 194.505C121.258 194.806 121.747 194.853 122.12 194.76C123.074 194.528 123.377 193.232 123.936 192.028C124.588 190.546 125.379 189.643 126.776 188.091C129.29 185.29 130.966 185.614 133.038 182.974C133.993 181.77 134.505 180.589 134.784 179.871C135.925 178.991 137.648 177.671 139.673 176.027C144.469 172.137 143.189 172.855 149.149 167.738C151.803 165.469 153.456 164.126 154.527 161.532C155.062 160.259 155.248 159.124 155.341 158.36C154.713 156.623 153.875 154.377 152.827 151.784C152.152 150.14 150.592 146.342 148.264 141.48C147.729 140.368 147.472 139.836 143.608 132.38C143.608 132.38 141.582 128.466 137.438 121.01C135.739 117.954 134.459 115.731 131.781 113.994C130.315 113.022 128.918 112.536 127.94 112.258Z" fill="white"/>
<path d="M127.937 112.605C131.266 112.791 133.268 116.032 134.898 118.533C136.854 121.497 138.716 124.507 140.509 127.564C144.117 133.746 147.376 140.114 150.287 146.667C151.963 150.464 153.523 154.308 154.966 158.198C155.129 158.615 155.804 158.43 155.641 158.013C150.38 143.772 143.489 130.134 135.061 117.468C133.361 114.944 131.289 112.073 127.96 111.911C127.495 111.888 127.495 112.582 127.937 112.605Z" fill="#030235"/>
<path d="M125.146 133.814C130.547 141.849 135.832 149.954 140.977 158.174C141.21 158.544 141.815 158.197 141.582 157.826C136.437 149.629 131.153 141.502 125.751 133.467C125.519 133.096 124.913 133.444 125.146 133.814Z" fill="#030235"/>
<path d="M144.283 157.099C142.77 156.682 141.559 157.654 140.604 158.72C139.138 160.34 137.788 162.077 136.391 163.767C133.481 167.241 130.594 170.714 127.684 174.187C127.404 174.535 127.893 175.021 128.173 174.674C130.687 171.663 133.178 168.676 135.692 165.666C136.926 164.184 138.16 162.725 139.371 161.243C140.442 159.97 142.094 157.214 144.073 157.77C144.539 157.886 144.725 157.214 144.283 157.099Z" fill="#030235"/>
<path d="M154.99 158.359C154.897 160.86 153.454 162.897 151.801 164.68C150.148 166.44 148.332 168.061 146.539 169.682C142.698 173.155 138.717 176.466 134.596 179.592C134.247 179.87 134.596 180.472 134.946 180.194C139.346 176.837 143.606 173.317 147.68 169.589C150.939 166.602 155.502 163.175 155.689 158.359C155.712 157.896 155.014 157.896 154.99 158.359Z" fill="#030235"/>
<path d="M128.154 174.312C125.011 173.872 121.426 174.011 118.469 175.307C117.678 175.655 116.793 176.396 117.189 177.368C117.585 178.387 118.958 178.063 119.633 178.734C119.959 179.058 120.448 178.572 120.122 178.248C119.657 177.785 119.168 177.808 118.609 177.553C117.98 177.461 117.934 176.974 118.492 176.048C118.795 175.909 119.098 175.794 119.4 175.701C119.866 175.539 120.355 175.423 120.821 175.307C123.172 174.752 125.593 174.659 127.968 174.983C128.41 175.029 128.596 174.358 128.154 174.312Z" fill="#030235"/>
<path d="M120.703 177.696C117.584 180.336 113.673 182.929 111.67 186.611C111.298 187.282 110.18 189.436 111.717 189.575C112.509 189.644 113.3 188.834 113.905 188.417C114.79 187.792 115.675 187.143 116.536 186.495C116.885 186.217 116.396 185.731 116.047 186.009C115.279 186.588 114.534 187.167 113.742 187.722C113.463 187.931 113.16 188.116 112.881 188.324C112.695 188.44 112.532 188.556 112.346 188.672C112.136 188.51 111.926 188.347 111.717 188.209C111.624 187.722 112.555 186.472 112.834 186.055C113.253 185.43 113.742 184.851 114.278 184.295C116.373 182.072 118.887 180.174 121.216 178.205C121.541 177.881 121.053 177.395 120.703 177.696Z" fill="#030235"/>
<path d="M134.226 179.711C133.481 183.995 128.802 185.477 126.078 188.302C124.751 189.691 123.936 191.428 122.935 193.025C122.772 193.303 122.143 194.484 121.864 194.53C120.863 194.716 121.352 193.095 121.422 192.771C121.654 191.567 122.097 190.432 122.679 189.344C122.888 188.95 122.283 188.603 122.073 188.996C121.398 190.247 120.909 191.59 120.677 193.002C120.56 193.674 120.351 194.762 121.003 195.295C122.399 196.452 124.169 192.308 124.611 191.567C125.333 190.316 126.148 189.135 127.242 188.163C128.359 187.167 129.616 186.38 130.827 185.5C132.713 184.087 134.459 182.328 134.878 179.919C134.971 179.456 134.296 179.271 134.226 179.711Z" fill="#030235"/>
<path d="M118.977 184.182C118.139 182.885 116.09 186.081 115.695 186.636C114.903 187.702 114.228 188.859 113.693 190.063C113.32 190.874 112.901 191.846 113.25 192.726C113.46 193.282 114.018 193.791 114.647 193.676C115.439 193.537 115.718 192.657 116.021 192.032C117.185 189.647 118.861 187.609 120.91 185.919C121.259 185.641 120.77 185.155 120.421 185.432C118.139 187.308 116.486 189.577 115.183 192.194C114.973 192.587 114.6 193.629 113.856 192.425C113.669 192.101 113.925 191.337 114.042 191.013C114.321 190.202 114.763 189.415 115.206 188.651C115.602 187.979 116.044 187.331 116.509 186.706C116.649 186.521 118.395 184.576 118.372 184.529C118.605 184.9 119.21 184.553 118.977 184.182Z" fill="#030235"/>
<path d="M115.228 192.488C114.157 193.692 115.903 194.734 116.997 193.947C117.765 193.414 118.208 192.303 118.766 191.585C119.604 190.497 120.955 188.691 122.468 188.829C122.91 188.876 122.91 188.181 122.468 188.135C121.164 188.019 120.186 188.945 119.348 189.848C118.883 190.335 118.464 190.821 118.068 191.353C117.835 191.654 117.626 191.955 117.416 192.28C117.323 192.419 117.23 192.581 117.137 192.72C116.881 193.368 116.415 193.461 115.693 192.997C116.019 192.627 115.53 192.141 115.228 192.488Z" fill="#030235"/>
<path d="M127.476 111.965C123.752 118.588 122.89 126.553 125.172 133.801C125.311 134.218 125.986 134.056 125.847 133.616C123.635 126.553 124.45 118.796 128.082 112.336C128.291 111.919 127.686 111.572 127.476 111.965Z" fill="#030235"/>
<path opacity="0.13" d="M127.194 112.515C126.589 113.349 129.988 116.382 132.898 119.624C132.898 119.624 139.766 127.242 144.166 137.777C146.61 143.636 148.403 147.896 147.984 153.731C147.402 161.743 143.072 167.532 141 170.149C137.112 175.104 133.829 176.192 129.243 181.68C125.029 186.728 122.794 191.776 121.607 195.133C123.516 190.34 125.96 188.117 127.893 186.982C129.266 186.149 131.362 185.292 133.015 183C133.876 181.796 134.318 180.615 134.528 179.804C135.529 179.086 137.112 177.952 139.021 176.539C149.404 168.875 151.499 166.258 152.873 163.943C153.571 162.785 154.549 160.91 155.317 158.339C154.712 156.626 153.874 154.38 152.803 151.763C151.243 147.896 148.566 141.714 144.678 134.374C141.698 128.77 137.81 122.194 132.852 115.085C132.526 114.622 131.85 113.765 130.686 113.14C129.546 112.538 127.59 111.982 127.194 112.515Z" fill="#98A0AD"/>
<path d="M75.3213 84.7973C73.6218 86.6497 72.9932 88.34 72.8536 88.7568C71.6662 92.1606 72.6208 95.2403 73.0398 96.4212C73.9012 100.751 74.8324 104.502 75.6473 107.536C76.5086 110.662 77.37 113.463 79.5584 116.242C81.1182 118.21 82.3055 118.859 83.2833 119.16C85.0992 119.739 86.7522 119.299 88.149 118.951C89.1966 118.673 90.8961 118.118 92.6888 116.798C93.1776 117.932 94.2951 120.04 96.5999 121.545C97.3449 122.031 98.0433 122.355 98.6952 122.587C99.2772 122.239 100.045 121.753 100.86 121.035C101.838 120.178 103.212 118.951 103.84 116.96C104.026 116.381 104.213 115.501 104.166 114.413C103.607 113.811 103.049 113.093 102.49 112.283C100.465 109.272 99.7894 106.216 99.5333 104.132C100.441 103.437 102.141 101.955 103.235 99.4545C103.607 98.5978 104.958 95.4487 103.887 91.9754C103.561 90.9102 102.956 89.6367 99.6963 86.4181C95.8549 82.6207 93.9226 80.7219 92.0602 80.0041C86.0305 77.6654 78.8833 80.9303 75.3213 84.7973Z" fill="white"/>
<path d="M72.4535 95.0501C73.1519 99.1254 73.9435 103.178 75.1773 107.137C76.2483 110.564 77.5753 114.454 79.9266 117.256C84.9785 123.323 93.5691 117.256 96.9216 112.417C99.3428 108.897 100.367 104.59 99.6687 100.353C99.5989 99.9127 98.9237 100.098 98.9936 100.538C100.134 107.577 96.0835 114.524 89.8442 117.812C86.259 119.687 82.1616 119.479 79.8102 115.913C77.9012 113.042 76.6673 109.638 75.6895 106.35C74.572 102.576 73.8271 98.7318 73.1519 94.8648C73.0355 94.4249 72.3604 94.6101 72.4535 95.0501Z" fill="#030235"/>
<path d="M99.2082 104.112C99.6273 107.933 101.117 111.452 103.585 114.37C103.864 114.717 104.377 114.208 104.074 113.884C101.723 111.105 100.279 107.724 99.8834 104.112C99.8601 103.672 99.1384 103.649 99.2082 104.112Z" fill="#030235"/>
<path d="M92.2186 116.682C93.7319 118.951 95.3615 121.127 97.6198 122.725C97.9923 122.98 98.3415 122.378 97.969 122.123C95.8271 120.595 94.2673 118.488 92.8239 116.334C92.5678 115.964 91.9625 116.311 92.2186 116.682Z" fill="#030235"/>
<path d="M97.7195 122.791C99.419 123.532 101.444 121.008 102.352 119.874C103.493 118.415 105.216 116.238 104.518 114.27C104.378 113.853 103.703 114.039 103.842 114.455C104.401 116.03 103.028 117.767 102.143 118.994C101.677 119.619 101.188 120.221 100.63 120.754C100.164 121.194 98.8603 122.513 98.092 122.189C97.6497 122.004 97.3005 122.606 97.7195 122.791Z" fill="#030235"/>
<path d="M99.5782 100.613C102.837 100.127 104.234 96.5377 103.839 93.5739C103.443 90.6795 99.9274 89.7301 97.9485 91.7678C97.6459 92.0919 98.1347 92.5782 98.4374 92.254C99.3686 91.3047 100.765 90.9805 101.93 91.7446C103.047 92.4624 103.257 93.6896 103.14 94.9169C102.931 97.3019 102.069 99.5711 99.4152 99.9647C98.9496 100.011 99.1358 100.683 99.5782 100.613Z" fill="#030235"/>
<path d="M78.6276 94.2909C78.9769 98.5052 79.6054 102.696 80.4668 106.818C80.5367 107.142 81.0721 107.142 81.142 106.818C81.5145 105.128 81.8869 103.437 82.2362 101.747C82.3293 101.307 81.6541 101.122 81.561 101.562C81.1885 103.252 80.816 104.942 80.4668 106.633C80.6996 106.633 80.9092 106.633 81.142 106.633C80.2806 102.557 79.6753 98.4357 79.3261 94.2909C79.3028 93.8509 78.6044 93.8509 78.6276 94.2909Z" fill="#030235"/>
<path d="M82.9329 108.003C85.6568 107.564 87.7753 104.461 88.2875 101.937C88.3806 101.497 87.7055 101.312 87.6124 101.752C87.1467 104.044 85.2377 106.915 82.7467 107.332C82.3044 107.401 82.4906 108.073 82.9329 108.003Z" fill="#030235"/>
<path d="M77.0724 101.585C77.4841 101.483 77.5754 100.434 77.2763 99.2434C76.9772 98.0523 76.401 97.1696 75.9894 97.2719C75.5777 97.3741 75.4865 98.4226 75.7855 99.6137C76.0846 100.805 76.6608 101.687 77.0724 101.585Z" fill="#030235"/>
<path d="M85.9415 97.7649C86.3531 97.6627 86.4444 96.6142 86.1453 95.4231C85.8462 94.232 85.2701 93.3493 84.8584 93.4516C84.4467 93.5538 84.3555 94.6023 84.6546 95.7934C84.9536 96.9845 85.5298 97.8672 85.9415 97.7649Z" fill="#030235"/>
<path d="M73.9511 94.3626C73.9045 93.8532 73.9744 93.0427 74.44 92.7186C74.8358 92.4638 75.6506 92.6259 75.9765 92.9269C76.3025 93.228 76.7914 92.7417 76.4654 92.4407C75.9533 91.9544 74.8823 91.6997 74.2072 92.0007C73.4157 92.3481 73.1828 93.6216 73.2527 94.3626C73.2992 94.8025 73.9977 94.8257 73.9511 94.3626Z" fill="#030235"/>
<path d="M82.3062 89.2663C82.5856 88.3632 83.5168 87.8075 84.448 87.9696C85.2861 88.1317 85.9147 88.7569 86.3105 89.4747C86.52 89.8683 87.1253 89.521 86.9158 89.1274C86.3338 88.0622 85.2861 87.2055 84.0057 87.2518C82.8882 87.2981 81.9337 88.0391 81.6078 89.0811C81.4914 89.521 82.1665 89.6831 82.3062 89.2663Z" fill="#030235"/>
<path d="M61.8899 93.5412C75.8478 91.8599 89.7749 90.1604 103.733 88.4791C105.182 88.3155 104.606 86.0946 103.163 86.2826C89.2051 87.9639 75.2781 89.6634 61.3201 91.3447C59.8708 91.5083 60.4406 93.7048 61.8899 93.5412Z" fill="#030235"/>
<path d="M71.0693 90.1959C70.9705 88.5033 71.0475 85.6723 72.2651 82.4966C72.7472 81.2276 73.5848 79.0084 75.5187 77.0805C79.1727 73.4098 85.8612 71.9538 91.4817 73.9476C96.985 75.8934 100.735 80.866 101.117 86.6768C91.107 87.8396 81.079 89.0331 71.0693 90.1959Z" fill="#030235"/>
<path d="M80.9857 74.0377C84.9607 73.8246 88.5739 76.1513 89.848 79.6507C90.9084 82.5283 90.2266 85.8528 88.106 88.2711C92.4903 87.7188 96.8564 87.1972 101.241 86.6449C101.196 85.5632 101.018 83.9689 100.279 82.2322C98.6269 78.2831 95.4776 76.3321 94.0822 75.4927C93.0018 74.8589 89.057 72.5653 83.9793 73.2695C82.739 73.4316 81.7028 73.7756 80.9857 74.0377Z" fill="#030235"/>
</svg>
