<svg xmlns="http://www.w3.org/2000/svg" viewBox="0 0 300 129.73">
    <defs>
        <style>.cls-1{isolation:isolate;}.cls-2{mix-blend-mode:multiply;}.cls-3{fill:#C9C7EF;}.cls-4{fill:#DAE6F1;}
        </style>
    </defs>
    <g class="cls-1">
        <g id="Layer_1" data-name="Layer 1">
            <g class="cls-2">
                <path class="cls-3"
                      d="M167.73,105.06A53.79,53.79,0,0,0,178.37,93.4L176,92.21a55,55,0,0,1-12.34,12.68l9.63,9.63h-7.6l-10.65-10.65a45.07,45.07,0,0,0,18.76-18.59L186,91a54.11,54.11,0,0,1-10.48,14.2l17.41,17.4H162.49l-5.07-4.9a60.16,60.16,0,0,1-23.83,4.9,59.49,59.49,0,1,1,53.57-34l-4.73-2.36a55.52,55.52,0,0,0,5.07-22.82,53.73,53.73,0,1,0-28.9,47.66l6.09,6.08H179.9Zm0-25.52a37.18,37.18,0,1,0-1.19,2.36l4.91,2.2a43.13,43.13,0,1,1,5.23-20.62,43.78,43.78,0,0,1-2,13.18L177,77.85a45.6,45.6,0,1,0-24.5,27.21l4,4a51.13,51.13,0,0,1-74-45.63,51.13,51.13,0,0,1,102.25,0,50.59,50.59,0,0,1-4.9,21.63Z"/>
                <path class="cls-3"
                      d="M167.73,105.06A53.79,53.79,0,0,0,178.37,93.4L176,92.21a55,55,0,0,1-12.34,12.68l9.63,9.63h-7.6l-10.65-10.65a45.07,45.07,0,0,0,18.76-18.59L186,91a54.11,54.11,0,0,1-10.48,14.2l17.41,17.4H162.49l-5.07-4.9a60.16,60.16,0,0,1-23.83,4.9,59.49,59.49,0,1,1,53.57-34l-4.73-2.36a55.52,55.52,0,0,0,5.07-22.82,53.73,53.73,0,1,0-28.9,47.66l6.09,6.08H179.9Zm0-25.52a37.18,37.18,0,1,0-1.19,2.36l4.91,2.2a43.13,43.13,0,1,1,5.23-20.62,43.78,43.78,0,0,1-2,13.18L177,77.85a45.6,45.6,0,1,0-24.5,27.21l4,4a51.13,51.13,0,0,1-74-45.63,51.13,51.13,0,0,1,102.25,0,50.59,50.59,0,0,1-4.9,21.63Z"/>
            </g>
            <path class="cls-4" d="M23.19,99.49H21.44V34.64H59.21V36.3h-36v29H57V67H23.19Z"/>
            <path class="cls-4"
                  d="M285,35.54,264.31,98.77H262.7L246.08,38.68,229.56,98.77h-1.62L207.28,35.54h1.89l19.49,60.08,16.61-60.08H247l16.61,60.08,19.49-60.08Z"/>
        </g>
    </g>
</svg>